<svg version="1.1" id="Layer_1" xmlns="http://www.w3.org/2000/svg" xmlns:xlink="http://www.w3.org/1999/xlink" x="0px" y="0px"
	 viewBox="0 0 24 24" style="enable-background:new 0 0 24 24;" xml:space="preserve">
<path d="M5.2,19.5c1.2-1.3,2.3-2.1,3.5-3.4c0.2-0.3,0.4-0.5,0.6-0.7c0.7-0.7,1.1-1.2,1.8-1.8l1.6-1.6l-0.6-0.6
	c-2.4-2.1-4.4-4.7-6.7-7c-0.2-0.2-0.2-0.5,0-0.7l0,0C5.8,3,6.5,2.4,7.2,1.9c0.2-0.1,0.3,0,0.5,0.1h0.1c0.6,0.2,1.1,1,1.6,1.5
	c1.3,1.3,2.6,2.7,4,4.1s2.7,2.5,3.9,3.9l0.1,0.1c0.2,0.2,0.2,0.5,0,0.7l0,0c-1.6,1.6-3.1,3.4-4.7,5S9.4,20.4,7.8,22
	c-0.2,0.2-0.5,0.2-0.7,0l0,0l-1.9-1.9C5,20,5,19.7,5.2,19.5z"/>
</svg>
